HIERARCHY
ROOT Hips
{
	OFFSET 0.000000 0.000000 0.000000
	CHANNELS 6 Xposition Yposition Zposition Xrotation Yrotation Zrotation
	JOINT LeftUpLeg_virtual
	{
		OFFSET 0.000000 0.000000 0.000000
		CHANNELS 3 Xrotation Yrotation Zrotation
		JOINT LeftUpLeg
		{
			OFFSET 13.026900 -6.336304 -1.092800
			CHANNELS 3 Xrotation Yrotation Zrotation
			JOINT LeftLeg
			{
				OFFSET 0.524474 -46.096886 9.782700
				CHANNELS 3 Xrotation Yrotation Zrotation
				JOINT LeftFoot
				{
					OFFSET -0.524474 -53.427422 -12.948200
					CHANNELS 3 Xrotation Yrotation Zrotation
					JOINT LeftToeBase
					{
						OFFSET 0.192200 -14.009700 16.364100
						CHANNELS 3 Xrotation Yrotation Zrotation
						JOINT LeftToe_End
						{
							OFFSET -1.784700 -0.561700 9.474800
							CHANNELS 3 Xrotation Yrotation Zrotation
							End Site
							{
								OFFSET 0 0 0
							}
						}
					}
				}
			}
		}
	}
	JOINT RightUpLeg_virtual
	{
		OFFSET 0.000000 0.000000 0.000000
		CHANNELS 3 Xrotation Yrotation Zrotation
		JOINT RightUpLeg
		{
			OFFSET -12.883000 -6.336304 -1.092800
			CHANNELS 3 Xrotation Yrotation Zrotation
			JOINT RightLeg
			{
				OFFSET -0.524587 -46.096825 9.782800
				CHANNELS 3 Xrotation Yrotation Zrotation
				JOINT RightFoot
				{
					OFFSET 0.524587 -53.427383 -12.948300
					CHANNELS 3 Xrotation Yrotation Zrotation
					JOINT RightToeBase
					{
						OFFSET -0.192200 -14.009700 16.364100
						CHANNELS 3 Xrotation Yrotation Zrotation
						JOINT RightToe_End
						{
							OFFSET 1.784700 -0.561700 9.474800
							CHANNELS 3 Xrotation Yrotation Zrotation
							End Site
							{
								OFFSET 0 0 0
							}
						}
					}
				}
			}
		}
	}
	JOINT Spine_virtual
	{
		OFFSET 0.000000 0.000000 0.000000
		CHANNELS 3 Xrotation Yrotation Zrotation
		JOINT Spine
		{
			OFFSET 0.072000 7.257294 -0.789700
			CHANNELS 3 Xrotation Yrotation Zrotation
			JOINT Spine1
			{
				OFFSET 0.000000 12.508769 -0.658067
				CHANNELS 3 Xrotation Yrotation Zrotation
				JOINT Spine1_split
				{
					OFFSET 0.000000 12.508769 -0.658067
					CHANNELS 3 Xrotation Yrotation Zrotation
					JOINT Spine2
					{
						OFFSET 0.000000 12.508769 -0.658067
						CHANNELS 3 Xrotation Yrotation Zrotation
						JOINT Neck_virtual
						{
							OFFSET 0.000000 0.000000 0.000000
							CHANNELS 3 Xrotation Yrotation Zrotation
							JOINT Neck
							{
								OFFSET 0.000000 14.033295 7.520400
								CHANNELS 3 Xrotation Yrotation Zrotation
								JOINT Head
								{
									OFFSET 0.000000 8.198502 5.703100
									CHANNELS 3 Xrotation Yrotation Zrotation
									JOINT HeadTop_End
									{
										OFFSET 0.000000 17.760803 13.332701
										CHANNELS 3 Xrotation Yrotation Zrotation
										End Site
										{
											OFFSET 0 0 0
										}
									}
								}
							}
						}
						JOINT LeftShoulder_virtual
						{
							OFFSET 0.000000 0.000000 0.000000
							CHANNELS 3 Xrotation Yrotation Zrotation
							JOINT LeftShoulder
							{
								OFFSET 6.292450 5.785301 -0.669000
								CHANNELS 3 Xrotation Yrotation Zrotation
								JOINT LeftShoulder_split
								{
									OFFSET 6.292450 5.785301 -0.669000
									CHANNELS 3 Xrotation Yrotation Zrotation
									JOINT LeftArm
									{
										OFFSET 13.907140 -6.093903 1.965100
										CHANNELS 3 Xrotation Yrotation Zrotation
										JOINT LeftForeArm
										{
											OFFSET 34.140198 0.000000 0.000000
											CHANNELS 3 Xrotation Yrotation Zrotation
											JOINT LeftHand
											{
												OFFSET 40.960209 0.000000 0.000000
												CHANNELS 3 Xrotation Yrotation Zrotation
												End Site
												{
													OFFSET 0 0 0
												}
											}
										}
									}
								}
							}
						}
						JOINT RightShoulder_virtual
						{
							OFFSET 0.000000 0.000000 0.000000
							CHANNELS 3 Xrotation Yrotation Zrotation
							JOINT RightShoulder
							{
								OFFSET -6.292450 5.785301 -0.669000
								CHANNELS 3 Xrotation Yrotation Zrotation
								JOINT RightShoulder_split
								{
									OFFSET -6.292450 5.785301 -0.669000
									CHANNELS 3 Xrotation Yrotation Zrotation
									JOINT RightArm
									{
										OFFSET -13.907140 -6.093903 1.965100
										CHANNELS 3 Xrotation Yrotation Zrotation
										JOINT RightForeArm
										{
											OFFSET -34.140198 0.000000 0.000000
											CHANNELS 3 Xrotation Yrotation Zrotation
											JOINT RightHand
											{
												OFFSET -40.960209 0.000000 0.000000
												CHANNELS 3 Xrotation Yrotation Zrotation
												End Site
												{
													OFFSET 0 0 0
												}
											}
										}
									}
								}
							}
						}
					}
				}
			}
		}
	}
}
MOTION
Frames: 4
Frame Time: 0.03333333
-5.392402 113.480309 -8.828005 0.000000 0.000000 0.000000 -8.715935 -0.629124 3.469664 -9.340587 8.272202 -3.471391 25.902133 -0.408410 -0.282218 -8.547645 4.054941 2.761873 0.000003 -0.000002 0.000000 0.000000 0.000000 0.000000 -8.715935 -0.629124 3.469664 -13.784565 -13.659875 -15.957431 29.105830 0.438965 0.308991 -6.551547 -14.705071 3.892605 -0.000162 -0.000005 0.000180 0.000000 0.000000 0.000000 -8.715935 -0.629124 3.469664 7.541419 1.448139 -4.539264 15.001686 3.208854 -3.005015 0.000000 0.000000 0.000000 0.000000 0.000000 0.000000 15.025231 3.101746 -2.981809 35.367184 0.454795 -4.927122 -0.614285 1.721698 -4.974587 0.000000 0.000000 0.000000 15.025231 3.101746 -2.981809 -2.107436 -21.664055 -27.014334 0.000000 0.000000 0.000000 -4.070712 -46.646473 -32.633554 4.425106 -22.863061 1.574470 0.000000 0.000000 0.000000 15.025231 3.101746 -2.981809 -2.505640 24.220855 26.971288 0.000000 0.000000 0.000000 -4.213956 20.673407 36.929276 27.080481 37.419195 -10.824386 0.000000 0.000000 0.000000 
-4.434157 114.413567 -8.513487 0.000000 0.000000 0.000000 -9.888783 -1.294053 3.980286 -5.964522 9.196831 -4.704202 22.982082 -0.369312 -0.268026 -7.702271 3.751412 3.299187 -0.000007 0.000000 -0.000001 0.000000 0.000000 0.000000 -9.888783 -1.294053 3.980286 -11.500161 -13.666650 -16.835744 26.815968 0.389791 0.291301 -5.391285 -14.059620 4.503642 -0.000109 -0.000004 0.000126 0.000000 0.000000 0.000000 -9.888783 -1.294053 3.980286 6.805966 1.615830 -4.908128 13.499547 3.300435 -3.157294 0.000000 0.000000 0.000000 0.000000 0.000000 0.000000 13.525417 3.199131 -3.135812 33.353426 1.110184 -4.334505 -1.596116 2.537176 -5.856433 0.000000 0.000000 0.000000 13.525417 3.199131 -3.135812 -1.205553 -20.666496 -24.364063 0.000000 0.000000 0.000000 1.602670 -41.933605 -31.598241 4.490916 -26.563567 0.875681 0.000000 0.000000 0.000000 13.525417 3.199131 -3.135812 -1.348469 22.309551 23.910459 0.000000 0.000000 0.000000 2.405166 20.579676 39.044834 30.735069 42.386102 -15.654505 0.000000 0.000000 0.000000 
-3.534418 114.726761 -8.345995 0.000000 0.000000 0.000000 -10.273873 -1.672247 4.373348 -4.491649 9.958464 -5.684650 21.704980 -0.353461 -0.261960 -7.398884 3.401355 3.833707 0.000009 -0.000003 0.000001 0.000000 0.000000 0.000000 -10.273873 -1.672247 4.373348 -10.838697 -13.512812 -17.738317 25.940782 0.363915 0.282087 -4.764980 -13.655156 5.075479 -0.000123 0.000012 0.000146 0.000000 0.000000 0.000000 -10.273873 -1.672247 4.373348 6.107124 1.643615 -5.199657 12.086296 3.177757 -3.317953 0.000000 0.000000 0.000000 0.000000 0.000000 0.000000 12.112672 3.083688 -3.298396 30.904844 1.645485 -3.990192 -2.591290 2.961596 -5.738696 0.000000 0.000000 0.000000 12.112672 3.083688 -3.298396 0.051151 -19.230211 -20.982121 0.000000 0.000000 0.000000 4.852669 -36.960496 -32.152364 6.739159 -28.723852 1.369271 0.000000 0.000000 0.000000 12.112672 3.083688 -3.298396 -0.076874 20.530169 20.303507 0.000000 0.000000 0.000000 6.411388 20.396591 41.725185 31.669357 45.382406 -17.619820 0.000000 0.000000 0.000000 
-2.814827 114.690804 -8.138319 0.000000 0.000000 0.000000 -10.108135 -1.960494 4.695423 -4.191492 10.615614 -6.409522 21.458048 -0.353266 -0.261950 -7.518074 3.127458 4.272258 0.000002 0.000000 0.000001 0.000000 0.000000 0.000000 -10.108135 -1.960494 4.695423 -11.139465 -13.176833 -18.540388 25.950920 0.353073 0.279206 -4.578622 -13.411768 5.563096 -0.000141 0.000002 0.000163 0.000000 0.000000 0.000000 -10.108135 -1.960494 4.695423 5.421916 1.618525 -5.482558 10.707922 3.001653 -3.485508 0.000000 0.000000 0.000000 0.000000 0.000000 0.000000 10.734435 2.915115 -3.467961 27.895264 2.104591 -3.063927 -3.214831 3.297946 -5.636959 0.000000 0.000000 0.000000 10.734435 2.915115 -3.467961 1.434091 -17.670099 -17.056535 0.000000 0.000000 0.000000 5.145483 -32.111690 -34.387803 10.769988 -28.265314 2.445295 0.000000 0.000000 0.000000 10.734435 2.915115 -3.467961 1.094252 18.911721 16.755142 0.000000 0.000000 0.000000 7.613253 19.725253 44.846069 30.069645 45.972077 -16.293042 0.000000 0.000000 0.000000 
